<svg role="img" viewBox="0 0 24 24" xmlns="http://www.w3.org/2000/svg" id="Cypress--Streamline-Simple-Icons" height="24" width="24">
  <desc>
    Cypress Streamline Icon: https://streamlinehq.com
  </desc>
  <title>Cypress</title>
  <path d="M11.998 0.0195c-0.8642 0 -1.6816 0.1101 -2.1445 0.1934v0.002C4.1731 1.2283 0 6.1368 0 12.0018c0 1.1265 0.1573 2.2328 0.4648 3.3028 0.0387 0.1453 0.0915 0.2993 0.1368 0.4473 1.607 4.865 6.2245 8.226 11.3925 8.2285 0.0651 0 0.2518 -0.0003 0.502 -0.0118 0.8564 -0.0353 1.6228 -0.5734 1.9512 -1.369l0.4736 -1.1544L20.4258 8.043H18.621l-2.3164 5.871 -2.334 -5.871h-1.9082l3.2734 8.0117c-0.8115 1.9702 -1.6252 3.9395 -2.4355 5.9101 -0.0808 0.1945 -0.2655 0.3284 -0.4727 0.336 -0.144 0.005 -0.285 0.0098 -0.4316 0.0098 -4.5848 0 -8.6672 -3.0695 -9.9277 -7.4649a10.3058 10.3058 0 0 1 -0.3985 -2.8437c0 -5.0887 3.6521 -9.3404 8.6035 -10.164 0.2214 -0.037 0.8885 -0.1446 1.7246 -0.1446 4.4166 0 8.269 2.732 9.7305 6.8476 0.0558 0.144 0.0977 0.293 0.1465 0.4395 0.299 0.9746 0.4531 1.9887 0.4531 3.0215 0 4.5696 -2.9413 8.5326 -7.3164 9.8613l0.4863 1.5996c5.085 -1.546 8.4995 -6.1518 8.502 -11.459 0 -1.5491 -0.2983 -2.8706 -0.6504 -3.8926 -0.0432 -0.1212 -0.0873 -0.2422 -0.1309 -0.3633h-0.002C21.4577 3.0954 17.0444 0.0195 11.998 0.0195ZM8.4336 7.8906c-1.1999 0 -2.1747 0.3852 -2.9805 1.1758 -0.8007 0.7856 -1.205 1.7736 -1.205 2.9356 0 1.1544 0.4068 2.1368 1.205 2.9199 0.8058 0.7906 1.7806 1.1738 2.9805 1.1738 1.705 0 3.1556 -0.955 3.7871 -2.4883l0.0332 -0.082 -1.6289 -0.5547c-0.168 0.4563 -0.7552 1.4883 -2.1914 1.4883 -0.6745 0 -1.2437 -0.2344 -1.6934 -0.6992 -0.4572 -0.4699 -0.6875 -1.0632 -0.6875 -1.7578 0 -0.6998 0.2253 -1.2809 0.6875 -1.7735 0.4522 -0.4648 1.019 -0.7012 1.6934 -0.7012 1.438 0 2.0238 1.0815 2.1934 1.4883l1.627 -0.5527 -0.0333 -0.084c-0.629 -1.5358 -2.082 -2.4883 -3.7871 -2.4883Z" fill="#ffffff" stroke-width="1"></path>
</svg>